# xmcd
#
# Track frame offsets:
#  150
#  13003
#  33976
#  66783
#  81596
#  97384
#  115447
#  144843
#  160816
#  172094
#  186955
#  205507
#  232055
#  245539
#  261883
#  282635
#  297094
#  312592
#  329172
#  339866
#
# Disc length: 4800 seconds
#
# Revision: 0
# Processed by: cddbd v1.5.1PL2 Copyright (c) Steve Scherf et al.
# Submitted via: Collectorz.com_Music_Collector 6.11
#
DISCID=3a12be14
DTITLE=Todd Snider - Aladdin Theatre, Portland - 08/10/2005
DYEAR=2005
DGENRE=Alt Country
TTITLE0=Can't Complain
TTITLE1=Just Like Old Times
TTITLE2=Ballad Of The Kingsmen
TTITLE3=Betty Was Black, Willie Was White
TTITLE4=Tillamook County Jail
TTITLE5=Tension
TTITLE6=Highland Street Incident
TTITLE7=Broke
TTITLE8=Rocket Fuel
TTITLE9=Beer Run
TTITLE10=Train Song
TTITLE11=You Think You Know Somebody
TTITLE12=Statistician's Blues
TTITLE13=Db Cooper
TTITLE14=Talkin' Seatle Grunge Rock Blues
TTITLE15=Incarcerated
TTITLE16=Ccrrswam
TTITLE17=Rose City
TTITLE18=Ain't Gonna Cry No More
TTITLE19=Double Wide Blues
EXTD=
EXTT0=
EXTT1=
EXTT2=
EXTT3=
EXTT4=
EXTT5=
EXTT6=
EXTT7=
EXTT8=
EXTT9=
EXTT10=
EXTT11=
EXTT12=
EXTT13=
EXTT14=
EXTT15=
EXTT16=
EXTT17=
EXTT18=
EXTT19=
PLAYORDER=
